<mxfile host="app.diagrams.net" modified="2023-05-03T07:47:44.691Z" agent="Mozilla/5.0 (Macintosh; Intel Mac OS X 10_15_7) AppleWebKit/537.36 (KHTML, like Gecko) Chrome/112.0.0.0 Safari/537.36" version="21.2.6" etag="CqSwCwcg0uvjD_hVRzZT" type="github">
  <diagram name="Trang-1" id="T3pi1dTQfMf_TmI5FPqM">
    <mxGraphModel>
      <root>
        <mxCell id="0" />
        <mxCell id="1" parent="0" />
      </root>
    </mxGraphModel>
  </diagram>
</mxfile>
